<svg width="512" height="512" viewBox="0 0 512 512" fill="none" xmlns="http://www.w3.org/2000/svg">
  <!-- Rounded square container -->
  <rect x="64" y="64" width="384" height="384" rx="56" fill="none" stroke="#626769" stroke-width="8"/>

  <!-- Calculator body -->
  <rect x="112" y="112" width="288" height="288" rx="24" fill="none" stroke="#626769" stroke-width="6"/>

  <!-- Display area -->
  <rect x="136" y="136" width="240" height="64" rx="12" fill="#7785A8" stroke="#626769" stroke-width="3"/>

  <!-- Button grid (4x4) -->
  <!-- Row 1 -->
  <rect x="136" y="224" width="48" height="42" rx="8" fill="#2F8A8D"/>
  <rect x="200" y="224" width="48" height="42" rx="8" fill="#2F8A8D"/>
  <rect x="264" y="224" width="48" height="42" rx="8" fill="#2F8A8D"/>
  <rect x="328" y="224" width="48" height="42" rx="8" fill="#1770B5"/>

  <!-- Row 2 -->
  <rect x="136" y="278" width="48" height="42" rx="8" fill="#7785A8"/>
  <rect x="200" y="278" width="48" height="42" rx="8" fill="#7785A8"/>
  <rect x="264" y="278" width="48" height="42" rx="8" fill="#7785A8"/>
  <rect x="328" y="278" width="48" height="42" rx="8" fill="#1770B5"/>

  <!-- Row 3 -->
  <rect x="136" y="332" width="48" height="42" rx="8" fill="#7785A8"/>
  <rect x="200" y="332" width="48" height="42" rx="8" fill="#7785A8"/>
  <rect x="264" y="332" width="48" height="42" rx="8" fill="#7785A8"/>
  <rect x="328" y="332" width="48" height="42" rx="8" fill="#1770B5"/>

  <!-- Row 4 - Bottom row with wide zero button -->
  <rect x="136" y="386" width="112" height="42" rx="8" fill="#7785A8"/>
  <rect x="264" y="386" width="48" height="42" rx="8" fill="#7785A8"/>
  <rect x="328" y="386" width="48" height="42" rx="8" fill="#2F8A8D"/>
</svg>
